<svg xmlns="http://www.w3.org/2000/svg" viewBox="0 0 512 512">
  <defs>
    <linearGradient id="bg" x1="0" y1="0" x2="1" y2="1">
      <stop offset="0%" stop-color="#f6efe8" />
      <stop offset="42%" stop-color="#ebe4db" />
      <stop offset="100%" stop-color="#d8d2c9" />
    </linearGradient>
    <radialGradient id="glow" cx="18%" cy="12%" r="92%">
      <stop offset="0%" stop-color="#ffffff" stop-opacity="0.95" />
      <stop offset="45%" stop-color="#ffffff" stop-opacity="0.35" />
      <stop offset="100%" stop-color="#ffffff" stop-opacity="0" />
    </radialGradient>
    <radialGradient id="sunGlow" cx="73%" cy="24%" r="48%">
      <stop offset="0%" stop-color="#f4c2a8" stop-opacity="0.95" />
      <stop offset="38%" stop-color="#efb9a6" stop-opacity="0.48" />
      <stop offset="100%" stop-color="#efb9a6" stop-opacity="0" />
    </radialGradient>
    <linearGradient id="card" x1="0" y1="0" x2="0" y2="1">
      <stop offset="0%" stop-color="#ffffff" stop-opacity="0.96" />
      <stop offset="100%" stop-color="#f3ede7" stop-opacity="0.92" />
    </linearGradient>
    <linearGradient id="towerBody" x1="0" y1="0" x2="0" y2="1">
      <stop offset="0%" stop-color="#596983" />
      <stop offset="100%" stop-color="#8998b1" />
    </linearGradient>
    <linearGradient id="towerAccent" x1="0" y1="0" x2="1" y2="1">
      <stop offset="0%" stop-color="#f5f1ea" />
      <stop offset="100%" stop-color="#ddd3c8" />
    </linearGradient>
    <linearGradient id="river" x1="0" y1="0" x2="1" y2="0">
      <stop offset="0%" stop-color="#9daec3" stop-opacity="0.86" />
      <stop offset="100%" stop-color="#c9d3e0" stop-opacity="0.72" />
    </linearGradient>
    <linearGradient id="pin" x1="0" y1="0" x2="1" y2="1">
      <stop offset="0%" stop-color="#d7a79d" />
      <stop offset="100%" stop-color="#bc8784" />
    </linearGradient>
    <linearGradient id="hill" x1="0" y1="0" x2="0" y2="1">
      <stop offset="0%" stop-color="#d8cec4" />
      <stop offset="100%" stop-color="#c9bfb4" />
    </linearGradient>
    <filter id="shadow" x="-20%" y="-20%" width="140%" height="140%">
      <feDropShadow dx="0" dy="18" stdDeviation="18" flood-color="#8f8176" flood-opacity="0.2" />
    </filter>
  </defs>
  <rect width="512" height="512" rx="118" fill="url(#bg)" />
  <rect width="512" height="512" rx="118" fill="url(#glow)" />
  <rect width="512" height="512" rx="118" fill="url(#sunGlow)" />
  <g filter="url(#shadow)">
    <rect x="74" y="74" width="364" height="364" rx="96" fill="url(#card)" />
    <rect x="74" y="74" width="364" height="364" rx="96" fill="none" stroke="#ffffff" stroke-opacity="0.72" stroke-width="3" />
  </g>
  <g opacity="0.96">
    <circle cx="338" cy="154" r="46" fill="#f6cfb9" fill-opacity="0.8" />
    <path d="M122 320c34-30 68-46 104-46 46 0 74 18 111 18 29 0 58-10 90-32v74H117Z" fill="url(#hill)" />
    <path d="M112 356c44-19 81-26 117-26 54 0 88 18 136 18 23 0 46-4 71-13" fill="none" stroke="url(#river)" stroke-width="24" stroke-linecap="round" />
    <path d="M134 389c32-10 58-14 84-14 30 0 62 10 94 10 23 0 50-4 83-13" fill="none" stroke="#d9d2ca" stroke-width="10" stroke-linecap="round" />
  </g>
  <g transform="translate(0 6)">
    <circle cx="236" cy="179" r="54" fill="none" stroke="url(#towerBody)" stroke-width="18" />
    <circle cx="236" cy="179" r="15" fill="url(#towerAccent)" />
    <path d="M236 110v42" fill="none" stroke="url(#towerBody)" stroke-width="18" stroke-linecap="round" />
    <path d="M236 240v88" fill="none" stroke="url(#towerBody)" stroke-width="20" stroke-linecap="round" />
    <path d="M203 334h66" fill="none" stroke="#73849d" stroke-width="15" stroke-linecap="round" />
    <path d="M214 327l22-92 22 92" fill="none" stroke="url(#towerBody)" stroke-width="14" stroke-linecap="round" stroke-linejoin="round" />
    <path d="M200 220c14 5 23 7 36 7 13 0 27-3 42-11" fill="none" stroke="#f0c5b6" stroke-width="8" stroke-linecap="round" opacity="0.92" />
  </g>
  <g transform="translate(312 276)">
    <path d="M0 0c0-29 24-52 52-52s52 23 52 52c0 39-52 95-52 95S0 39 0 0Z" fill="url(#pin)" />
    <circle cx="52" cy="52" r="14" fill="#fbf7f2" />
  </g>
</svg>
