<svg xmlns="http://www.w3.org/2000/svg" viewBox="0 0 512 512">
  <defs>
    <linearGradient id="bg" x1="0" y1="0" x2="1" y2="1">
      <stop offset="0%" stop-color="#f6efe8" />
      <stop offset="42%" stop-color="#ebe4db" />
      <stop offset="100%" stop-color="#d8d2c9" />
    </linearGradient>
    <radialGradient id="glow" cx="18%" cy="12%" r="92%">
      <stop offset="0%" stop-color="#ffffff" stop-opacity="0.95" />
      <stop offset="45%" stop-color="#ffffff" stop-opacity="0.35" />
      <stop offset="100%" stop-color="#ffffff" stop-opacity="0" />
    </radialGradient>
    <radialGradient id="sunGlow" cx="73%" cy="24%" r="48%">
      <stop offset="0%" stop-color="#f4c2a8" stop-opacity="0.95" />
      <stop offset="38%" stop-color="#efb9a6" stop-opacity="0.48" />
      <stop offset="100%" stop-color="#efb9a6" stop-opacity="0" />
    </radialGradient>
    <linearGradient id="card" x1="0" y1="0" x2="0" y2="1">
      <stop offset="0%" stop-color="#ffffff" stop-opacity="0.96" />
      <stop offset="100%" stop-color="#f3ede7" stop-opacity="0.92" />
    </linearGradient>
    <linearGradient id="towerBody" x1="0" y1="0" x2="0" y2="1">
      <stop offset="0%" stop-color="#596983" />
      <stop offset="100%" stop-color="#8998b1" />
    </linearGradient>
    <linearGradient id="towerAccent" x1="0" y1="0" x2="1" y2="1">
      <stop offset="0%" stop-color="#f5f1ea" />
      <stop offset="100%" stop-color="#ddd3c8" />
    </linearGradient>
    <linearGradient id="river" x1="0" y1="0" x2="1" y2="0">
      <stop offset="0%" stop-color="#9daec3" stop-opacity="0.86" />
      <stop offset="100%" stop-color="#c9d3e0" stop-opacity="0.72" />
    </linearGradient>
    <linearGradient id="pin" x1="0" y1="0" x2="1" y2="1">
      <stop offset="0%" stop-color="#d7a79d" />
      <stop offset="100%" stop-color="#bc8784" />
    </linearGradient>
    <linearGradient id="hill" x1="0" y1="0" x2="0" y2="1">
      <stop offset="0%" stop-color="#d8cec4" />
      <stop offset="100%" stop-color="#c9bfb4" />
    </linearGradient>
    <filter id="softShadow" x="-20%" y="-20%" width="140%" height="140%">
      <feDropShadow dx="0" dy="14" stdDeviation="16" flood-color="#8f8176" flood-opacity="0.16" />
    </filter>
  </defs>
  <rect width="512" height="512" rx="118" fill="url(#bg)" />
  <rect width="512" height="512" rx="118" fill="url(#glow)" />
  <rect width="512" height="512" rx="118" fill="url(#sunGlow)" />
  <g opacity="0.96">
    <circle cx="350" cy="148" r="56" fill="#f6cfb9" fill-opacity="0.82" />
    <path d="M84 326c42-36 84-55 129-55 57 0 92 21 138 21 35 0 69-11 111-36v93H80Z" fill="url(#hill)" />
    <path d="M76 372c53-22 96-31 140-31 64 0 104 21 162 21 29 0 58-5 92-16" fill="none" stroke="url(#river)" stroke-width="28" stroke-linecap="round" />
    <path d="M108 412c38-12 69-17 99-17 36 0 72 12 111 12 28 0 59-5 98-16" fill="none" stroke="#d9d2ca" stroke-width="11" stroke-linecap="round" />
  </g>
  <g transform="translate(0 8)" filter="url(#softShadow)">
    <circle cx="218" cy="176" r="66" fill="url(#card)" fill-opacity="0.34" />
    <circle cx="218" cy="176" r="58" fill="none" stroke="url(#towerBody)" stroke-width="18" />
    <circle cx="218" cy="176" r="16" fill="url(#towerAccent)" />
    <path d="M218 100v48" fill="none" stroke="url(#towerBody)" stroke-width="18" stroke-linecap="round" />
    <path d="M218 244v104" fill="none" stroke="url(#towerBody)" stroke-width="20" stroke-linecap="round" />
    <path d="M180 356h76" fill="none" stroke="#73849d" stroke-width="15" stroke-linecap="round" />
    <path d="M192 348l26-104 26 104" fill="none" stroke="url(#towerBody)" stroke-width="14" stroke-linecap="round" stroke-linejoin="round" />
    <path d="M178 222c16 5 26 7 40 7 15 0 30-4 47-12" fill="none" stroke="#f0c5b6" stroke-width="8" stroke-linecap="round" opacity="0.92" />
  </g>
  <g transform="translate(318 270)" filter="url(#softShadow)">
    <path d="M0 0c0-31 25-56 56-56s56 25 56 56c0 42-56 101-56 101S0 42 0 0Z" fill="url(#pin)" />
    <circle cx="56" cy="56" r="15" fill="#fbf7f2" />
  </g>
</svg>
